It is a medley performed in VMA 2003 by Britney, Christina and Madonna



It is most for that controversial kiss between Madonna and Britney & Madonna and Christina



General

Complete name                    : Britney Spears, Christina Aguilera & Madonna - Medley - Like A Virgin & Hollywood (MTV VMA's 2003).flv

Format                           : Flash Video
File size                        : 51.7 MiB
Duration                         : 5mn 27s
Overall bit rate                 : 1 324 Kbps

Video
Format                           : AVC
Format/Info                      : Advanced Video Codec
Format profile                   : Main@L3.0
Format settings, CABAC           : Yes
Format settings, ReFrames        : 3 frames
Muxing mode                      : Container profile=Unknown@3.0
Duration                         : 5mn 27s
Bit rate                         : 1 201 Kbps
Width                            : 854 pixels
Height                           : 480 pixels
Display aspect ratio             : 16:9
Frame rate                       : 25.000 fps
Color space                      : YUV
Chroma subsampling               : 4:2:0
Bit depth                        : 8 bits
Scan type                        : Progressive
Bits/(Pixel*Frame)               : 0.117
Stream size                      : 46.9 MiB (91%)

Audio
Format                           : AAC
Format/Info                      : Advanced Audio Codec
Format version                   : Version 4
Format profile                   : LC
Format settings, SBR             : No
Duration                         : 5mn 27s
Bit rate                         : 116 Kbps
Channel(s)                       : 2 channels
Channel positions                : Front: L R
Sampling rate                    : 44.1 KHz
Bit depth                        : 16 bits
Stream size                      : 4.54 MiB (9%)